HIERARCHY
ROOT Hips
{
	OFFSET 0.000000 8.830580 0.000000
	CHANNELS 6 Xposition Yposition Zposition Zrotation Yrotation Xrotation 
	JOINT Spine
	{
		OFFSET 0.000000 0.010000 0.000000
		CHANNELS 3 Zrotation Yrotation Xrotation
		JOINT Spine1
		{
			OFFSET 0.000000 2.459130 0.000000
			CHANNELS 3 Zrotation Yrotation Xrotation
			JOINT Neck
			{
				OFFSET 0.000000 2.484630 0.000000
				CHANNELS 3 Zrotation Yrotation Xrotation
				JOINT Head_virtual
				{
					OFFSET 0.000000 0.000000 0.000000
					CHANNELS 3 Zrotation Yrotation Xrotation
					JOINT Head
					{
						OFFSET 0.000000 0.927525 0.000000
						CHANNELS 3 Zrotation Yrotation Xrotation
						End Site
						{
							OFFSET 0.000000 0.000000 0.000000
						}
					}
				}
				JOINT LeftUpArm_virtual
				{
					OFFSET 0.000000 0.000000 0.000000
					CHANNELS 3 Zrotation Yrotation Xrotation
					JOINT LeftUpArm
					{
						OFFSET 1.248820 0.000000 0.000000
						CHANNELS 3 Zrotation Yrotation Xrotation
						JOINT LeftForeArm
						{
							OFFSET 2.597580 0.000000 0.000000
							CHANNELS 3 Zrotation Yrotation Xrotation
							JOINT LeftHand
							{
								OFFSET 2.455420 0.000000 0.000000
								CHANNELS 3 Zrotation Yrotation Xrotation
								End Site
								{
									OFFSET 0.000000 0.000000 0.000000
								}
							}
						}
					}
				}
				JOINT RightUpArm_virtual
				{
					OFFSET -0.000000 -0.000000 -0.000000
					CHANNELS 3 Zrotation Yrotation Xrotation
					JOINT RightUpArm
					{
						OFFSET -1.248820 -0.000000 -0.000000
						CHANNELS 3 Zrotation Yrotation Xrotation
						JOINT RightForeArm
						{
							OFFSET -2.597580 -0.000000 -0.000000
							CHANNELS 3 Zrotation Yrotation Xrotation
							JOINT RightHand
							{
								OFFSET -2.455420 -0.000000 -0.000000
								CHANNELS 3 Zrotation Yrotation Xrotation
								End Site
								{
									OFFSET 0.000000 0.000000 0.000000
								}
							}
						}
					}
				}
			}
		}
	}
	JOINT LeftUpLeg
	{
		OFFSET 1.271939 0.000000 0.000000
		CHANNELS 3 Zrotation Yrotation Xrotation
		JOINT LeftLowLeg
		{
			OFFSET 0.000000 -4.342910 0.000000
			CHANNELS 3 Zrotation Yrotation Xrotation
			JOINT LeftFoot
			{
				OFFSET 0.000000 -4.487670 0.000000
				CHANNELS 3 Zrotation Yrotation Xrotation
				JOINT LeftToeBase
				{
					OFFSET 0.000000 0.000000 1.515070
					CHANNELS 3 Zrotation Yrotation Xrotation
					End Site
					{
						OFFSET 0.000000 0.000000 0.000000
					}
				}
			}
		}
	}
	JOINT RightUpLeg
	{
		OFFSET -1.271939 0.000000 0.000000
		CHANNELS 3 Zrotation Yrotation Xrotation
		JOINT RightLowLeg
		{
			OFFSET 0.000000 -4.342910 0.000000
			CHANNELS 3 Zrotation Yrotation Xrotation
			JOINT RightFoot
			{
				OFFSET 0.000000 -4.487670 0.000000
				CHANNELS 3 Zrotation Yrotation Xrotation
				JOINT RightToeBase
				{
					OFFSET 0.000000 0.000000 1.515070
					CHANNELS 3 Zrotation Yrotation Xrotation
					End Site
					{
						OFFSET 0.000000 0.000000 0.000000
					}
				}
			}
		}
	}
}
MOTION
Frames: 11
Frame Time: 0.041667
-15.368017 9.104737 35.012938 -177.904546 -31.367945 -158.554870 9.260918 0.486620 -6.197494 -5.076244 -1.984296 4.563092 0.000000 0.000000 0.000000 9.241450 -7.354016 -29.734879 -17.658356 7.725788 -103.858861 -14.219700 -2.587510 5.601330 49.369202 -40.403500 -52.945007 0.000000 -80.292297 0.000000 19.948000 2.619660 32.217098 14.195800 -6.396290 -3.273510 -51.418999 48.198299 -69.286011 -180.000000 88.523598 -180.000000 -4.123140 -9.747960 -13.522500 7.375177 -15.788449 -22.801552 0.000000 0.000000 4.759340 -1.325745 15.084179 2.554678 0.000000 0.000000 -10.743530 2.348331 16.813273 -20.132548 0.000000 0.000000 -1.323790 -0.422575 -19.355236 11.605580 0.000000 0.000000 -16.518320 
-15.393032 9.108199 34.975509 -177.928786 -31.172838 -158.996227 9.209272 0.377813 -6.628935 -4.532413 -1.981615 4.363104 0.000000 0.000000 0.000000 10.250780 -7.453050 -28.547978 -15.958259 7.310704 -103.574570 -13.908800 -2.459970 5.204660 40.533100 -40.214001 -51.549011 0.000000 -82.095398 0.000000 22.089500 3.554590 33.243500 15.081000 -7.134500 0.175065 -49.494900 46.446899 -69.298004 -180.000000 88.486702 -180.000000 -7.369250 -12.200000 -13.480500 7.100208 -15.825828 -22.143469 0.000000 0.000000 5.042720 -1.310347 15.197983 2.302986 0.000000 0.000000 -10.806790 2.489590 16.796401 -19.374032 0.000000 0.000000 -1.299990 -0.105128 -19.080241 11.349142 0.000000 0.000000 -16.541960 
-15.419804 9.111278 34.936643 -177.946618 -30.954623 -159.562079 9.229942 0.227421 -6.901895 -4.324785 -2.080916 4.298230 0.000000 0.000000 0.000000 12.178135 -7.210081 -28.014184 -15.039022 7.320192 -102.921059 -13.481400 -1.728230 4.524470 32.101601 -40.246799 -50.662994 0.000000 -84.245697 0.000000 23.154900 4.033540 32.322601 14.837800 -7.498410 -1.317490 -41.217800 48.436298 -63.743011 -180.000000 87.361702 -180.000000 -9.617870 -13.874700 -12.782900 6.816227 -15.941063 -21.359489 0.000000 0.000000 5.342460 -1.358367 15.363251 2.014204 0.000000 0.000000 -10.848930 2.660580 16.791839 -18.454581 0.000000 0.000000 -1.317590 0.250301 -18.781552 11.056436 0.000000 0.000000 -16.423420 
-15.448452 9.113524 34.897630 -177.985991 -30.743909 -159.982142 9.260980 0.125177 -7.239167 -4.094580 -2.141340 4.059079 0.000000 0.000000 0.000000 13.949240 -7.065403 -27.278993 -14.121207 7.233632 -102.342729 -12.996600 -1.111490 3.960640 23.353100 -40.174400 -49.821014 0.000000 -86.934502 0.000000 25.640200 5.676750 32.075298 14.878500 -7.696250 -0.812968 -34.338001 48.450699 -60.020996 180.000000 86.146202 180.000000 -12.219400 -15.473400 -11.003100 6.513768 -15.974204 -20.752861 0.000000 0.000000 5.743440 -1.447496 15.438491 1.664995 0.000000 0.000000 -10.892080 2.741660 16.855723 -17.705868 0.000000 0.000000 -1.285070 0.600356 -18.575470 10.742133 0.000000 0.000000 -16.423660 
-15.478023 9.115758 34.857658 -178.008464 -30.527955 -160.400011 9.301565 0.074278 -7.558407 -3.812989 -2.165875 3.697936 0.000000 0.000000 0.000000 15.380816 -6.979839 -26.309682 -13.129355 7.050993 -101.861254 -12.622800 -0.839720 3.671970 14.662600 -39.337200 -49.022003 0.000000 -89.999802 0.000000 27.881901 6.811330 27.982901 14.785700 -7.449140 -1.284550 -26.029499 48.181702 -54.479004 -180.000000 84.340599 -180.000000 -15.583100 -17.815800 -10.304700 6.249829 -16.090159 -20.188440 0.000000 0.000000 6.211680 -1.511537 15.624785 1.298181 0.000000 0.000000 -10.948690 2.839535 16.906111 -16.981052 0.000000 0.000000 -1.212020 0.932183 -18.347947 10.419593 0.000000 0.000000 -16.430110 
-15.507935 9.115952 34.819110 -178.025284 -30.270620 -160.787131 9.332843 0.082639 -8.049708 -3.510014 -2.068316 3.550466 0.000000 0.000000 0.000000 16.810929 -7.052514 -25.258736 -12.434564 6.805483 -101.441303 -12.800600 -1.447340 3.882670 7.695100 -37.021400 -48.882996 -180.000000 -86.858398 180.000000 30.812599 7.560000 25.195200 15.287400 -7.274110 -0.689200 -20.235800 47.074200 -51.144012 180.000000 82.992203 180.000000 -19.868401 -18.634300 -7.500260 5.976778 -16.168729 -19.675860 0.000000 0.000000 6.716850 -1.569612 15.823034 0.878178 0.000000 0.000000 -10.983700 3.003106 16.773173 -16.242090 0.000000 0.000000 -1.206840 1.095925 -17.997363 10.143552 0.000000 0.000000 -16.448290 
-15.538696 9.114828 34.781540 -178.025302 -30.012224 -161.090575 9.451053 0.065574 -8.480036 -3.260696 -2.046282 3.368200 0.000000 0.000000 0.000000 18.161806 -7.089027 -24.661906 -12.102642 6.768672 -100.834426 -13.443700 -2.283330 3.750220 2.022970 -33.864601 -48.391998 180.000000 -83.761101 -180.000000 35.608200 7.338870 25.648300 15.782300 -7.444170 -0.387703 -14.528500 46.433998 -48.143005 -180.000000 81.766899 -180.000000 -23.986500 -18.252501 -4.099940 5.720337 -16.191337 -19.285193 0.000000 0.000000 7.268600 -1.627622 15.989945 0.443666 0.000000 0.000000 -11.066100 3.150101 16.607336 -15.579423 0.000000 0.000000 -1.238510 1.363430 -17.584318 9.835025 0.000000 0.000000 -16.489710 
-15.570105 9.111921 34.745984 -178.007988 -29.738438 -161.277045 9.647753 0.085016 -8.987690 -3.362026 -2.026777 3.164912 0.000000 0.000000 0.000000 20.013592 -6.865400 -23.941730 -12.367501 7.002922 -100.228264 -14.534300 -2.544500 4.258090 -1.666280 -31.374201 -49.201996 180.000000 -81.224098 -180.000000 38.867199 5.948150 28.656300 16.535299 -7.271500 -0.126167 -8.856060 45.036499 -45.510986 -180.000000 80.290298 180.000000 -26.328100 -17.266300 -1.886200 5.544582 -16.346063 -19.021217 0.000000 0.000000 7.770180 -1.658729 16.336300 0.007399 0.000000 0.000000 -11.166780 3.293661 16.269019 -15.079694 0.000000 0.000000 -1.198360 1.771934 -16.911158 9.435528 0.000000 0.000000 -16.529690 
-15.601422 9.107710 34.711394 -177.924052 -29.468072 -161.349870 9.891864 0.076216 -9.560119 -3.376766 -2.044834 2.914557 0.000000 0.000000 0.000000 21.538867 -6.685003 -23.350034 -12.657469 7.272439 -99.489993 -15.940000 -2.732050 4.932360 -4.547110 -28.724400 -50.190002 -180.000000 -78.910004 180.000000 42.888000 3.564740 32.253300 17.542101 -7.129720 -0.131074 -3.886200 43.692001 -43.093994 180.000000 78.671997 180.000000 -29.384199 -17.676600 0.989891 5.472026 -16.532622 -18.877748 0.000000 0.000000 8.209200 -1.640076 16.766169 -0.469666 0.000000 0.000000 -11.213320 3.394196 16.086930 -14.716704 0.000000 0.000000 -1.222690 2.207827 -16.336976 9.072184 0.000000 0.000000 -16.585280 
-15.631759 9.101708 34.678275 -177.756833 -29.128207 -161.450578 10.154926 -0.008614 -10.045000 -3.218833 -2.162561 2.636089 0.000000 0.000000 0.000000 22.739505 -6.528057 -22.834394 -12.931153 7.528609 -98.785578 -17.501600 -2.675950 5.848770 -6.953230 -25.868000 -51.358002 180.000000 -76.849998 -180.000000 45.511200 0.674410 34.741299 18.491400 -6.859810 -0.008472 0.583865 42.396099 -40.993988 180.000000 77.070999 180.000000 -32.070099 -17.219801 3.233420 5.448086 -16.635813 -18.673503 0.000000 0.000000 8.531340 -1.697543 17.156378 -1.012455 0.000000 0.000000 -11.253180 3.509488 16.070963 -14.384335 0.000000 0.000000 -1.261330 2.586681 -15.838043 8.754093 0.000000 0.000000 -16.586260 
-15.662124 9.094792 34.648573 -177.542868 -28.690238 -161.460392 10.458716 -0.076538 -10.522209 -2.999319 -2.285095 2.327392 0.000000 0.000000 0.000000 23.734727 -6.390635 -22.314690 -13.251749 7.733688 -98.237563 -18.892200 -2.373820 6.775440 -9.427170 -23.112700 -52.076996 -180.000000 -75.106003 180.000000 48.658901 -2.370850 36.396999 19.437000 -6.630900 0.081534 4.741690 41.081402 -38.906006 -180.000000 75.357002 -180.000000 -34.730499 -16.310801 5.056020 5.443424 -16.633423 -18.551320 0.000000 0.000000 8.796020 -1.646169 17.626442 -1.537920 0.000000 0.000000 -11.269990 3.558522 16.303045 -14.180178 0.000000 0.000000 -1.352630 2.810533 -15.537128 8.527743 0.000000 0.000000 -16.597210 
